<svg width="35" height="27" viewBox="0 0 35 27" fill="none" xmlns="http://www.w3.org/2000/svg">
<path d="M0 0.628166C2.57733 0.628166 4.66667 2.72475 4.66667 5.31103V26.3839C2.08934 26.3839 0 24.2873 0 21.701V0.628166Z" fill="url(#paint0_linear_2_72)"/>
<path d="M15.1667 0.628166C17.744 0.628166 19.8333 2.72475 19.8333 5.31103V26.3839C17.256 26.3839 15.1667 24.2873 15.1667 21.701V0.628166Z" fill="url(#paint1_linear_2_72)"/>
<path d="M30.3333 0.628166C32.9107 0.628166 35 2.72475 35 5.31103V26.3839C32.4227 26.3839 30.3333 24.2873 30.3333 21.701V0.628166Z" fill="url(#paint2_linear_2_72)"/>
<path d="M0 0.628166C2.23203 -0.66497 5.08612 0.102434 6.37478 2.34221L19.8333 26.3839C17.6013 27.677 15.0934 26.8614 13.8047 24.6216L0 0.628166Z" fill="url(#paint3_linear_2_72)"/>
<path d="M15.1667 0.628166C17.3987 -0.66497 20.2528 0.102434 21.5415 2.34221L35 26.3839C32.768 27.677 30.26 26.8614 28.9714 24.6216L15.1667 0.628166Z" fill="url(#paint4_linear_2_72)"/>
<defs>
<linearGradient id="paint0_linear_2_72" x1="17.5" y1="12.8864" x2="23.7712" y2="-5.7435" gradientUnits="userSpaceOnUse">
<stop stop-color="#B4A59C"/>
<stop offset="1" stop-color="#968073"/>
</linearGradient>
<linearGradient id="paint1_linear_2_72" x1="17.5" y1="12.8864" x2="23.7712" y2="-5.7435" gradientUnits="userSpaceOnUse">
<stop stop-color="#B4A59C"/>
<stop offset="1" stop-color="#968073"/>
</linearGradient>
<linearGradient id="paint2_linear_2_72" x1="21.875" y1="20.8636" x2="22.0539" y2="27.2404" gradientUnits="userSpaceOnUse">
<stop stop-color="#B4A59C"/>
<stop offset="1" stop-color="#968073"/>
</linearGradient>
<linearGradient id="paint3_linear_2_72" x1="18.0833" y1="2.9696" x2="30.3927" y2="21.6619" gradientUnits="userSpaceOnUse">
<stop stop-color="#634843"/>
<stop offset="1" stop-color="#2E1A17"/>
</linearGradient>
<linearGradient id="paint4_linear_2_72" x1="18.0833" y1="2.9696" x2="30.3927" y2="21.6619" gradientUnits="userSpaceOnUse">
<stop stop-color="#634843"/>
<stop offset="1" stop-color="#2E1A17"/>
</linearGradient>
</defs>
</svg>
